<?xml version="1.0" encoding="utf-8"?>
<!-- Generator: Adobe Illustrator 18.0.0, SVG Export Plug-In . SVG Version: 6.00 Build 0)  -->
<!DOCTYPE svg PUBLIC "-//W3C//DTD SVG 1.1//EN" "http://www.w3.org/Graphics/SVG/1.1/DTD/svg11.dtd">
<svg version="1.1" id="Layer_1" xmlns="http://www.w3.org/2000/svg" xmlns:xlink="http://www.w3.org/1999/xlink" x="0px" y="0px"
	 viewBox="0 0 205.2 128.5" enable-background="new 0 0 205.2 128.5" xml:space="preserve">
<g id="Layer_4" display="none">
	<path display="inline" fill="#FFFFFF" d="M170.1,17.9c-3.7-0.7-6-1.3-7.3-2.7c-1.4-1.4-2-3.6-2.7-7.3c-0.1-0.3-0.3-0.5-0.6-0.5
		c-0.3,0-0.6,0.2-0.6,0.5c-0.7,3.7-1.3,6-2.7,7.3c-1.4,1.4-3.6,2-7.3,2.7c-0.3,0.1-0.5,0.3-0.5,0.6c0,0.3,0.2,0.6,0.5,0.6
		c3.7,0.7,6,1.3,7.3,2.7c1.4,1.4,2,3.6,2.7,7.3c0.1,0.3,0.3,0.5,0.6,0.5c0.3,0,0.6-0.2,0.6-0.5c0.7-3.7,1.3-6,2.7-7.3
		c1.4-1.4,3.6-2,7.3-2.7c0.3-0.1,0.5-0.3,0.5-0.6S170.5,18,170.1,17.9z"/>
</g>
<g id="Layer_2" display="none">
	<path display="inline" fill="none" stroke="#000000" stroke-width="8" stroke-linecap="round" stroke-miterlimit="10" d="M-13-45.6
		c6.7-9.8,10.6-21.7,10.6-34.5c0-33.8-27.4-61.3-61.3-61.3s-61.3,27.4-61.3,61.3c0,33.8,27.4,61.3,61.3,61.3
		c14.6,0,28-5.1,38.6-13.7"/>
</g>
<g>
	<path d="M3.7,91c1.9-0.4,4.8-0.7,7.8-0.7c4.3,0,7,0.7,9.1,2.4c1.7,1.3,2.7,3.2,2.7,5.8c0,3.2-2.1,6-5.6,7.3v0.1
		c3.1,0.8,6.8,3.4,6.8,8.3c0,2.8-1.1,5-2.8,6.6c-2.3,2.1-6,3.1-11.4,3.1c-2.9,0-5.2-0.2-6.6-0.4V91z M8,104.6h3.9
		c4.5,0,7.2-2.4,7.2-5.5c0-3.9-2.9-5.4-7.3-5.4c-2,0-3.1,0.1-3.8,0.3V104.6z M8,120.4c0.8,0.1,2.1,0.2,3.6,0.2
		c4.4,0,8.5-1.6,8.5-6.4c0-4.5-3.9-6.4-8.5-6.4H8V120.4z"/>
	<path d="M51.8,111.6c0,8.8-6.1,12.6-11.8,12.6c-6.4,0-11.4-4.7-11.4-12.2c0-7.9,5.2-12.6,11.8-12.6
		C47.2,99.4,51.8,104.3,51.8,111.6z M33,111.8c0,5.2,3,9.1,7.2,9.1c4.1,0,7.2-3.9,7.2-9.2c0-4-2-9.1-7.1-9.1
		C35.2,102.6,33,107.3,33,111.8z"/>
	<path d="M78.7,111.6c0,8.8-6.1,12.6-11.8,12.6c-6.4,0-11.4-4.7-11.4-12.2c0-7.9,5.2-12.6,11.8-12.6
		C74.1,99.4,78.7,104.3,78.7,111.6z M59.9,111.8c0,5.2,3,9.1,7.2,9.1c4.1,0,7.2-3.9,7.2-9.2c0-4-2-9.1-7.1-9.1
		C62.1,102.6,59.9,107.3,59.9,111.8z"/>
	<path d="M88.4,110.8L88.4,110.8c0.7-0.8,1.5-1.9,2.2-2.7l7-8.2h5.2l-9.2,9.8l10.4,14h-5.2l-8.2-11.4l-2.2,2.5v8.9h-4.3V88.8h4.3
		V110.8z"/>
	<path d="M106.5,119.2c1.3,0.8,3.5,1.7,5.7,1.7c3.1,0,4.6-1.6,4.6-3.5c0-2.1-1.2-3.2-4.4-4.4c-4.3-1.5-6.3-3.9-6.3-6.7
		c0-3.8,3.1-7,8.2-7c2.4,0,4.5,0.7,5.8,1.5l-1.1,3.1c-0.9-0.6-2.6-1.4-4.9-1.4c-2.5,0-4,1.5-4,3.2c0,2,1.4,2.8,4.5,4
		c4.1,1.6,6.2,3.6,6.2,7.2c0,4.2-3.2,7.1-8.9,7.1c-2.6,0-5-0.6-6.7-1.6L106.5,119.2z"/>
	<path d="M126.5,88.8h4.3v14.8h0.1c0.7-1.2,1.8-2.3,3.1-3c1.3-0.7,2.8-1.2,4.4-1.2c3.2,0,8.3,2,8.3,10.1v14.1h-4.3V110
		c0-3.8-1.4-7.1-5.5-7.1c-2.8,0-5,2-5.8,4.3c-0.2,0.6-0.3,1.2-0.3,2.1v14.3h-4.3V88.8z"/>
	<path d="M156.1,112.5c0.1,5.8,3.8,8.2,8.1,8.2c3.1,0,5-0.5,6.6-1.2l0.7,3.1c-1.5,0.7-4.1,1.5-7.9,1.5c-7.3,0-11.7-4.8-11.7-12
		s4.2-12.8,11.1-12.8c7.7,0,9.8,6.8,9.8,11.2c0,0.9-0.1,1.6-0.1,2H156.1z M168.8,109.5c0-2.7-1.1-7-6-7c-4.4,0-6.3,4-6.6,7H168.8z"
		/>
	<path d="M178.3,88.8h4.3v34.8h-4.3V88.8z"/>
	<path d="M190.3,123.6v-20.4h-3.3v-3.3h3.3v-1.1c0-3.3,0.7-6.4,2.7-8.3c1.6-1.6,3.8-2.2,5.8-2.2c1.5,0,2.8,0.3,3.7,0.7l-0.6,3.3
		c-0.6-0.3-1.5-0.5-2.7-0.5c-3.7,0-4.6,3.2-4.6,6.9v1.3h5.7v3.3h-5.7v20.4H190.3z"/>
</g>
<g>
	<path d="M55.4,43.2c-0.4-8.1-0.9-17.8-0.9-25h-0.3c-2,6.8-4.4,14-7.3,22L36.7,68.3H31l-9.4-27.6c-2.8-8.2-5.1-15.7-6.7-22.5h-0.2
		c-0.2,7.2-0.6,16.9-1.1,25.6l-1.5,24.9H5l4-58h9.5l9.9,28c2.4,7.1,4.4,13.5,5.8,19.5h0.3c1.5-5.8,3.5-12.2,6.1-19.5l10.3-28h9.5
		l3.6,58h-7.3L55.4,43.2z"/>
	<path d="M80.2,49.2c0.2,10.2,6.7,14.4,14.3,14.4c5.4,0,8.7-0.9,11.5-2.1l1.3,5.4c-2.7,1.2-7.2,2.6-13.8,2.6
		c-12.8,0-20.5-8.4-20.5-21s7.4-22.4,19.5-22.4c13.6,0,17.2,12,17.2,19.6c0,1.5-0.2,2.8-0.3,3.5H80.2z M102.3,43.8
		c0.1-4.8-2-12.3-10.5-12.3c-7.7,0-11,7.1-11.6,12.3H102.3z"/>
	<path d="M154.9,27.1c-0.2,3-0.3,6.4-0.3,11.4v24.2c0,9.5-1.9,15.4-5.9,19c-4,3.8-9.9,5-15.1,5c-5,0-10.5-1.2-13.8-3.4l1.9-5.8
		c2.8,1.7,7.1,3.3,12.2,3.3c7.7,0,13.4-4,13.4-14.5v-4.6H147c-2.3,3.9-6.8,7-13.2,7c-10.3,0-17.7-8.8-17.7-20.3
		c0-14.1,9.2-22.1,18.7-22.1c7.2,0,11.2,3.8,13,7.2h0.2l0.3-6.3H154.9z M147.1,43.5c0-1.3-0.1-2.4-0.4-3.4c-1.4-4.4-5.1-8-10.6-8
		c-7.2,0-12.4,6.1-12.4,15.7c0,8.2,4.1,15,12.3,15c4.6,0,8.9-2.9,10.5-7.7c0.4-1.3,0.6-2.8,0.6-4V43.5z"/>
	<path d="M174.8,9.8c-2,7.2-5.7,16.4-8.1,20.4l-4.8,0.6c1.9-5.1,4.1-14,5.1-20.2L174.8,9.8z"/>
	<path d="M175.8,60.9c2.2,1.5,6.2,3,10,3c5.5,0,8.1-2.8,8.1-6.2c0-3.6-2.2-5.6-7.7-7.7c-7.5-2.7-11-6.8-11-11.8
		c0-6.7,5.4-12.2,14.4-12.2c4.2,0,7.9,1.2,10.2,2.6l-1.9,5.5c-1.6-1-4.6-2.4-8.5-2.4c-4.5,0-7,2.6-7,5.7c0,3.4,2.5,5,7.9,7.1
		c7.2,2.8,10.9,6.4,10.9,12.6c0,7.3-5.7,12.5-15.6,12.5c-4.6,0-8.8-1.1-11.7-2.8L175.8,60.9z"/>
</g>
</svg>
